<?xml version="1.0" encoding="UTF-8" standalone="no"?><!-- Generator: Gravit.io --><svg xmlns="http://www.w3.org/2000/svg" xmlns:xlink="http://www.w3.org/1999/xlink" style="isolation:isolate" viewBox="0 0 500 500" width="500pt" height="500pt"><defs><clipPath id="_clipPath_xuLhuIwak3Ovobl4qEMcvZHuVO9aemFD"><rect width="500" height="500"/></clipPath></defs><g clip-path="url(#_clipPath_xuLhuIwak3Ovobl4qEMcvZHuVO9aemFD)"><path d="M 35 0 L 465 0 C 484.317 0 500 15.683 500 35 L 500 465 C 500 484.317 484.317 500 465 500 L 35 500 C 15.683 500 0 484.317 0 465 L 0 35 C 0 15.683 15.683 0 35 0 Z" style="stroke:none;fill:#FFFFFF;stroke-miterlimit:10;"/><g><path d=" M 149.517 79.3 L 49.043 143.313 L 149.517 207.325 L 250.009 143.313 L 149.517 79.3 L 149.517 79.3 Z " fill="rgb(0,97,255)"/><path d=" M 350.483 79.3 L 250.009 143.313 L 350.483 207.325 L 450.957 143.313 L 350.483 79.3 L 350.483 79.3 Z " fill="rgb(0,97,255)"/><path d=" M 49.043 271.337 L 149.517 335.35 L 250.009 271.337 L 149.517 207.325 L 49.043 271.337 L 49.043 271.337 Z " fill="rgb(0,97,255)"/><path d=" M 350.483 207.325 L 250.009 271.337 L 350.483 335.35 L 450.957 271.337 L 350.483 207.325 L 350.483 207.325 Z " fill="rgb(0,97,255)"/><path d=" M 149.517 356.687 L 250.009 420.7 L 350.483 356.687 L 250.009 292.675 L 149.517 356.687 L 149.517 356.687 Z " fill="rgb(0,97,255)"/></g></g></svg>